<svg xmlns="http://www.w3.org/2000/svg" viewBox="0 0 277.28 287.8"><defs><style>.cls-1{fill:#c60c30;}</style></defs><g id="Layer_2" data-name="Layer 2"><g id="Layer_1-2" data-name="Layer 1"><path class="cls-1" d="M194.07,269.76a9,9,0,1,0,9.37,8.68A9,9,0,0,0,194.07,269.76Zm.54,14.34a5.33,5.33,0,1,1,5.14-5.53A5.32,5.32,0,0,1,194.61,284.1Z"/><path class="cls-1" d="M134.71,239.83a9,9,0,1,0-2.31,12.55A9,9,0,0,0,134.71,239.83Zm-4.4,9.51a5.33,5.33,0,1,1,1.34-7.42A5.33,5.33,0,0,1,130.31,249.34Z"/><polygon class="cls-1" points="146.83 275.58 148.5 276.4 150.16 277.21 156.1 265.04 162.09 267.98 156.14 280.14 157.8 280.95 159.46 281.76 167.03 266.28 154.41 260.11 146.83 275.58"/><polygon class="cls-1" points="263.31 242.67 258.45 249.67 256.06 248.01 260.37 241.77 258.73 240.64 257.07 239.49 252.77 245.73 250.62 244.25 255.45 237.24 253.94 236.19 252.43 235.16 245.47 245.19 259.41 254.8 266.35 244.76 264.81 243.72 263.31 242.67"/><path class="cls-1" d="M254.2,230l1.71.71c1.35.57,4.6,1.9,4.6,1.9,5.6,2.3,4.73,5.67,4.32,6.66l1.71.69,1.71.72a7.82,7.82,0,0,0,.47-4.42c-.51-2.61-2.44-5.28-6.79-7.07l-2.9-1.17,1.68-4.1L273,229l.25.1.69-1.7.72-1.71-15.94-6.58Z"/><path class="cls-1" d="M123.58,233.7a6.35,6.35,0,0,0,3.59-8.2l-1-2.43h0l-.68-1.73-.66-1.7-16.43,6.42.67,1.73.67,1.71,4.63-1.81c.1.29.21.55.33.86s.38.95.6,1.57A6.37,6.37,0,0,0,123.58,233.7Zm-4.78-4.93c-.23-.62-.44-1.12-.62-1.58-.11-.3-.22-.57-.33-.84l4.93-1.93.94,2.41a2.64,2.64,0,1,1-4.92,1.94Z"/><path class="cls-1" d="M177.72,268.54l-2.54-.51h0l-1.82-.36-1.8-.38-3.47,17.3,1.79.37,1.82.36,1-4.87.89.19,1.65.32a6.33,6.33,0,1,0,2.5-12.42Zm1.34,6.75a2.66,2.66,0,0,1-3.11,2.06L174.3,277l-.89-.18,1-5.18,2.55.51A2.64,2.64,0,0,1,179.06,275.29Z"/><polygon class="cls-1" points="245 257.95 245.23 248.28 245.27 246.64 244.44 247.28 243.38 248.12 241.51 249.59 241.31 258.29 239.99 259.32 235.84 254.03 234.39 255.17 232.94 256.31 237.09 261.6 235.78 262.63 227.28 260.75 225.41 262.22 224.34 263.06 223.51 263.69 225.13 264.06 234.56 266.14 234.44 275.93 234.41 277.46 235.17 276.87 236.27 275.99 238.15 274.54 238.26 265.77 239.56 264.74 243.76 270.12 245.23 268.98 246.68 267.84 242.47 262.47 243.76 261.45 252.3 263.42 254.17 261.97 255.27 261.09 256.04 260.49 254.54 260.15 245 257.95"/><path class="cls-1" d="M148.6,261.8l1.83.23a9,9,0,1,0-6.26,7.43l-.55-1.77-.55-1.75a5.32,5.32,0,1,1,3.71-4.39Z"/><path class="cls-1" d="M224,267a9.84,9.84,0,0,0-7.39.13l-.58-1.68-1.75.61-1.75.6.58,1.69c-3.47,1.17-5.09,3-5.85,4.46a6.43,6.43,0,0,0,3.12,9,9.66,9.66,0,0,0,7.21-.08l.15-.05.6,1.68,1.73-.61,1.74-.6-.58-1.68a.58.58,0,0,1,.16-.05c3.37-1.19,5-3,5.7-4.44a6.37,6.37,0,0,0,.43-5.15A6.49,6.49,0,0,0,224,267Zm-9.82,11.7a4.51,4.51,0,0,1-2.31-.31,3,3,0,0,1-.64-.39,2.74,2.74,0,0,1-.9-1.23,2.65,2.65,0,0,1-.06-1.53,3.92,3.92,0,0,1,.25-.7,4.9,4.9,0,0,1,1.63-1.68,9.08,9.08,0,0,1,2.19-1l2.19,6.32A8.62,8.62,0,0,1,214.16,278.7Zm9.92-5.18a2.76,2.76,0,0,1-.28.72,4.7,4.7,0,0,1-1.62,1.69,10.54,10.54,0,0,1-2.18,1l-2.19-6.32a8.43,8.43,0,0,1,2.36-.55,4.58,4.58,0,0,1,2.3.3,2.83,2.83,0,0,1,.65.4A2.6,2.6,0,0,1,224,272,2.77,2.77,0,0,1,224.08,273.52Z"/><path class="cls-1" d="M210.44,234a4.17,4.17,0,0,0-4.16-4.16,3,3,0,0,0-.66.07v-2.31H210v-2.13H203.5v6.84a6.65,6.65,0,0,1,3.27-.28l.07,0a2,2,0,0,1-.56,4,2,2,0,0,1-1.78-1l-1.83,1.06a4.15,4.15,0,0,0,7.77-2.07Z"/><path class="cls-1" d="M186.19,237.79l3.59-6.18,0-.08h0a4.25,4.25,0,0,0,.56-2.08,4.17,4.17,0,1,0-4.23,4.17l-2.41,4.17Zm-2-8.34a2,2,0,0,1,4.09,0,2,2,0,0,1-.27,1h0l-.06.14a2,2,0,0,1-3.73-1.15Z"/><polygon class="cls-1" points="179.81 237.79 179.81 225.49 176.03 225.49 176.03 227.62 177.68 227.62 177.68 237.79 179.81 237.79"/><path class="cls-1" d="M198.76,237.46a4.18,4.18,0,0,0,1.82-3.44v-4.57a4.18,4.18,0,0,0-8.35,0V234a4.2,4.2,0,0,0,4.19,4.19A4,4,0,0,0,198.76,237.46ZM194.37,234v-4.57a2,2,0,0,1,4.08,0V234a2,2,0,1,1-4.08,0Z"/><path class="cls-1" d="M141.64,98.72a7.8,7.8,0,0,0,4.58,1.48,7.88,7.88,0,0,0,6.37-3.26A221.75,221.75,0,0,1,256.91,18.2l.71-.25,0,.74a23.77,23.77,0,0,1,0,4c-.68,7.54-4.86,13.09-12.73,17a6,6,0,0,0-.74.41l-.05,0a206.6,206.6,0,0,0-60.31,43.2,7.88,7.88,0,0,0,.23,11.09,7.84,7.84,0,0,0,11.09-.22,190,190,0,0,1,61.8-42.65l.72-.3.09.76c.07.92.1,1.84.14,2.72C258,64.28,254.2,71.24,246.21,76c-.27.18-.55.37-.87.62l-.06.05A167.66,167.66,0,0,0,222.93,92a7.84,7.84,0,0,0,9.9,12.15,155.63,155.63,0,0,1,23.83-15.94l.81-.43,0,.91c.19,6.39-1.11,15.55-8.4,22.83a7.71,7.71,0,0,0-2.32,5.55,7.86,7.86,0,0,0,13.41,5.57c19.34-19.29,11.49-45.86,11.14-47a7.32,7.32,0,0,0-.57-1.38l-.05-.12a8.67,8.67,0,0,0-.4-1.19.38.38,0,0,1-.08-.13l-.19-.36.12-.24a41.4,41.4,0,0,0,3.44-17.82,56.9,56.9,0,0,0-3.4-18.17l-.06-.22.09-.21a36.14,36.14,0,0,0,3.08-11.77A41.82,41.82,0,0,0,271,6.44a3.89,3.89,0,0,0-.33-.76l-.05-.15A7.82,7.82,0,0,0,260.82.36a236.55,236.55,0,0,0-121,87.42,7.79,7.79,0,0,0-1.48,4.57A7.91,7.91,0,0,0,141.64,98.72Z"/><path class="cls-1" d="M277.19,200.33c-.43-41-30.29-76.18-71-83.6a154.72,154.72,0,0,0-25.23-2.07h-.24C95.1,117,12.28,191.08,8.81,194.23L2,200.4c-.08.11-.51.45-.8.8a4.83,4.83,0,0,0-1.17,3,4.59,4.59,0,0,0,4.26,4.57h273ZM80,192.08l5-1.11c38.26-8.52,60.08-12,75.29-12,17.45,0,26.37,4.64,35.1,12.11l1.14,1Zm131.92,0-.16-.17c-13.65-14-24.43-23.14-49-23.56H160.9c-23.32,0-59.41,7.47-117.84,21.28l-2.69.63,2.23-1.63c28.26-20.73,83.84-55.73,138.45-57.29a135.65,135.65,0,0,1,22.14,1.79,70.25,70.25,0,0,1,34.06,16.6l1.1,1H207.11a5.37,5.37,0,0,0,0,10.74h40.67l.16.24a69,69,0,0,1,11.88,29.77l.1.64Z"/></g></g></svg>